<svg width="11" height="11" viewBox="0 0 11 11" fill="none" xmlns="http://www.w3.org/2000/svg">
    <path d="M5.50649 0.21875C5.90408 0.223083 6.30004 0.269125 6.68841 0.355792C6.77104 0.374235 6.84583 0.418031 6.90236 0.481058C6.95888 0.544085 6.99429 0.623195 7.00366 0.707333L7.09575 1.53446C7.10875 1.65107 7.14894 1.763 7.21309 1.86125C7.27724 1.9595 7.36356 2.04131 7.46509 2.10012C7.56663 2.15892 7.68055 2.19307 7.79769 2.19981C7.91483 2.20656 8.03192 2.18572 8.13954 2.13896L8.89841 1.80583C8.97546 1.7719 9.06115 1.76274 9.14363 1.77962C9.22611 1.79651 9.30131 1.8386 9.35883 1.90008C9.90696 2.48567 10.3151 3.18795 10.5527 3.95408C10.5776 4.03459 10.5768 4.12086 10.5505 4.20093C10.5242 4.28099 10.4737 4.3509 10.4059 4.40096L9.73312 4.89712C9.63851 4.96662 9.56159 5.0574 9.50857 5.16214C9.45555 5.26687 9.42792 5.38261 9.42792 5.5C9.42792 5.61739 9.45555 5.73313 9.50857 5.83786C9.56159 5.9426 9.63851 6.03338 9.73312 6.10287L10.4064 6.5985C10.4744 6.64852 10.5251 6.71849 10.5515 6.79867C10.5779 6.87886 10.5787 6.96528 10.5537 7.04592C10.3161 7.81201 9.90797 8.51427 9.35991 9.09992C9.30254 9.16126 9.22756 9.20332 9.14531 9.22029C9.06305 9.23727 8.97755 9.22833 8.90058 9.19471L8.13845 8.8605C8.03098 8.81338 7.91393 8.79222 7.79676 8.79874C7.67959 8.80526 7.5656 8.83927 7.46402 8.89802C7.36244 8.95678 7.27612 9.03862 7.21205 9.13693C7.14797 9.23524 7.10795 9.34726 7.0952 9.46392L7.00366 10.2905C6.99443 10.3737 6.95971 10.4521 6.90425 10.5148C6.84879 10.5775 6.77529 10.6216 6.69383 10.641C5.90925 10.8276 5.09182 10.8276 4.30725 10.641C4.22578 10.6216 4.15229 10.5775 4.09682 10.5148C4.04136 10.4521 4.00664 10.3737 3.99741 10.2905L3.90641 9.465C3.89314 9.34864 3.85276 9.23701 3.7885 9.1391C3.72424 9.04119 3.63791 8.95971 3.53644 8.90123C3.43497 8.84275 3.3212 8.8089 3.20426 8.80239C3.08733 8.79588 2.9705 8.81689 2.86316 8.86375L2.10158 9.19742C2.02454 9.23116 1.93893 9.24017 1.85656 9.22319C1.77419 9.20621 1.69912 9.16408 1.6417 9.10262C1.09338 8.51634 0.685192 7.81331 0.44787 7.04646C0.422897 6.96582 0.423666 6.8794 0.45007 6.79922C0.476475 6.71903 0.527202 6.64907 0.595203 6.59904L1.26849 6.10287C1.3632 6.03345 1.44022 5.94269 1.49331 5.83795C1.5464 5.7332 1.57407 5.61743 1.57407 5.5C1.57407 5.38257 1.5464 5.26679 1.49331 5.16205C1.44022 5.05731 1.3632 4.96655 1.26849 4.89712L0.595203 4.40204C0.527298 4.35195 0.476678 4.28195 0.450373 4.20177C0.424067 4.12159 0.423382 4.03521 0.448411 3.95462C0.685945 3.1885 1.09413 2.48623 1.64224 1.90062C1.69976 1.83914 1.77496 1.79705 1.85744 1.78017C1.93992 1.76328 2.02561 1.77244 2.10266 1.80638L2.86099 2.1395C2.9688 2.18623 3.08606 2.20702 3.20335 2.20021C3.32065 2.1934 3.43472 2.15917 3.53638 2.10028C3.63805 2.04139 3.72449 1.95947 3.78875 1.86111C3.85302 1.76274 3.89332 1.65068 3.90641 1.53392L3.99849 0.707333C4.00779 0.623025 4.04324 0.543741 4.09987 0.480599C4.15651 0.417458 4.23148 0.373626 4.31429 0.35525C4.70266 0.269125 5.0997 0.223625 5.50649 0.21875ZM5.49999 3.875C5.06902 3.875 4.65569 4.0462 4.35095 4.35095C4.0462 4.6557 3.87499 5.06902 3.87499 5.5C3.87499 5.93098 4.0462 6.3443 4.35095 6.64905C4.65569 6.95379 5.06902 7.125 5.49999 7.125C5.93097 7.125 6.3443 6.95379 6.64904 6.64905C6.95379 6.3443 7.12499 5.93098 7.12499 5.5C7.12499 5.06902 6.95379 4.6557 6.64904 4.35095C6.3443 4.0462 5.93097 3.875 5.49999 3.875Z"
          fill="white"/>
</svg>
