<svg width="37" height="37" viewBox="0 0 37 37" fill="none" xmlns="http://www.w3.org/2000/svg">
<path d="M18.5002 3.08484C9.98554 3.08484 3.0835 9.98688 3.0835 18.5015C3.0835 27.0161 9.98554 33.9182 18.5002 33.9182C27.0148 33.9182 33.9168 27.0161 33.9168 18.5015C33.9168 9.98688 27.0148 3.08484 18.5002 3.08484ZM18.9318 25.4853C18.7361 25.6811 18.4765 25.8001 18.2004 25.8208C17.9243 25.8414 17.6499 25.7623 17.4272 25.5978L17.2961 25.4868L11.1295 19.3186C10.9332 19.1227 10.8139 18.8629 10.7933 18.5864C10.7726 18.3099 10.852 18.0352 11.0169 17.8124L11.1295 17.6829L17.2977 11.5162C17.504 11.3093 17.781 11.1882 18.0729 11.1772C18.3649 11.1663 18.6502 11.2662 18.8715 11.457C19.0927 11.6478 19.2336 11.9153 19.2656 12.2057C19.2977 12.4961 19.2187 12.7879 19.0444 13.0224L18.9334 13.1519L14.737 17.3453H25.0522C25.3322 17.3449 25.6027 17.4462 25.8136 17.6302C26.0245 17.8142 26.1616 18.0684 26.1992 18.3458L26.2085 18.5C26.2089 18.7796 26.1078 19.05 25.9242 19.2609C25.7405 19.4718 25.4866 19.6089 25.2095 19.647L25.0522 19.6562H14.7385L18.9318 23.8495C19.1281 24.0454 19.2474 24.3053 19.268 24.5817C19.2887 24.8582 19.2093 25.1329 19.0444 25.3558L18.9318 25.4853Z" fill="#292929"/>
</svg>
