<svg width="29" height="22" viewBox="0 0 29 22" fill="none" xmlns="http://www.w3.org/2000/svg">
<path d="M9.45841 17.2612L3.45282 11.2557C3.1542 10.9672 2.75425 10.8077 2.33911 10.8113C1.92396 10.8149 1.52684 10.9814 1.23328 11.2749C0.939716 11.5685 0.773199 11.9656 0.769591 12.3808C0.765984 12.7959 0.925575 13.1959 1.21399 13.4945L8.33899 20.6195C8.63591 20.9163 9.03856 21.0831 9.45841 21.0831C9.87825 21.0831 10.2809 20.9163 10.5778 20.6195L27.9945 3.20283C28.2829 2.9042 28.4425 2.50425 28.4389 2.08911C28.4353 1.67396 28.2688 1.27684 27.9752 0.983279C27.6816 0.689716 27.2845 0.523199 26.8694 0.519591C26.4542 0.515984 26.0543 0.675575 25.7557 0.963992L9.45841 17.2612Z" fill="#00AF29"/>
</svg>
